<svg id="BG" xmlns="http://www.w3.org/2000/svg" xmlns:xlink="http://www.w3.org/1999/xlink" viewBox="0 0 1920 1080"><defs><style>.cls-1{fill:#343754;}.cls-2{fill:#909196;}.cls-3{fill:#e6e6e6;}.cls-38,.cls-39,.cls-4{fill:none;}.cls-5{fill:#8a3b78;}.cls-6{fill:#f0f;}.cls-7{fill:url(#linear-gradient);}.cls-8{fill:#a7365e;}.cls-9{fill:url(#linear-gradient-2);}.cls-10{fill:url(#linear-gradient-3);}.cls-11{fill:url(#linear-gradient-4);}.cls-12{fill:url(#Sky);}.cls-13{fill:#6c4091;}.cls-14{fill:url(#radial-gradient);}.cls-15{fill:url(#radial-gradient-2);}.cls-16{fill:#009245;}.cls-17{fill:url(#radial-gradient-3);}.cls-18{fill:#6ba200;}.cls-19{fill:#00a99d;}.cls-20{fill:url(#radial-gradient-4);}.cls-21{fill:url(#linear-gradient-5);}.cls-22{fill:url(#linear-gradient-6);}.cls-23{fill:url(#radial-gradient-5);}.cls-24{fill:url(#radial-gradient-6);}.cls-25{fill:url(#radial-gradient-7);}.cls-26{fill:#ed1e79;}.cls-27{fill:url(#Sky-2);}.cls-28{fill:url(#radial-gradient-8);}.cls-29{fill:gray;}.cls-30{fill:url(#radial-gradient-9);}.cls-31{fill:url(#radial-gradient-10);}.cls-32{fill:#f7a19a;}.cls-33{fill:#ef413d;}.cls-34{fill:#b77772;}.cls-35{fill:#8e187c;}.cls-36{fill:#fff;}.cls-37{fill:#af302d;}.cls-38,.cls-39{stroke:#e6e6e6;stroke-miterlimit:10;stroke-width:2px;}.cls-39{stroke-dasharray:11.98 11.98;}</style><linearGradient id="linear-gradient" x1="1449.09" y1="275.71" x2="1552.44" y2="275.71" gradientUnits="userSpaceOnUse"><stop offset="0.32" stop-color="#6c4091"/><stop offset="1"/></linearGradient><linearGradient id="linear-gradient-2" x1="998.06" y1="115.1" x2="1018.62" y2="115.1" gradientUnits="userSpaceOnUse"><stop offset="0" stop-color="#009245"/><stop offset="0.2" stop-color="#008c4e"/><stop offset="0.52" stop-color="#007b68"/><stop offset="0.94" stop-color="#005f91"/><stop offset="0.99" stop-color="#005b97"/></linearGradient><linearGradient id="linear-gradient-3" x1="1004.82" y1="100.96" x2="1083.27" y2="100.96" xlink:href="#linear-gradient-2"/><linearGradient id="linear-gradient-4" x1="1057.1" y1="123.77" x2="1072.36" y2="123.77" xlink:href="#linear-gradient-2"/><linearGradient id="Sky" x1="972.87" y1="128.15" x2="1107.84" y2="128.15" gradientUnits="userSpaceOnUse"><stop offset="0" stop-color="#cce0f4"/><stop offset="0.06" stop-color="#c3dcf2"/><stop offset="0.17" stop-color="#a9d2ee"/><stop offset="0.31" stop-color="#80c2e7"/><stop offset="0.46" stop-color="#47acde"/><stop offset="0.57" stop-color="#1e9cd7"/><stop offset="0.87" stop-color="#0075be"/><stop offset="0.99" stop-color="#005b97"/></linearGradient><radialGradient id="radial-gradient" cx="175.44" cy="620.9" r="51.93" gradientUnits="userSpaceOnUse"><stop offset="0.17" stop-color="#f7931e" stop-opacity="0.7"/><stop offset="0.94" stop-color="#f7931e"/></radialGradient><radialGradient id="radial-gradient-2" cx="173.95" cy="620.53" r="32.21" gradientUnits="userSpaceOnUse"><stop offset="0.12" stop-color="#362d3f"/><stop offset="0.93" stop-color="#0071bc"/></radialGradient><radialGradient id="radial-gradient-3" cx="1620.67" cy="629.84" r="47.88" xlink:href="#radial-gradient-2"/><radialGradient id="radial-gradient-4" cx="1208.9" cy="934.37" r="82.38" gradientUnits="userSpaceOnUse"><stop offset="0.17" stop-color="#39b54a"/><stop offset="0.89" stop-color="#d9e021"/></radialGradient><linearGradient id="linear-gradient-5" x1="761.02" y1="539.85" x2="885.63" y2="539.85" gradientUnits="userSpaceOnUse"><stop offset="0.23" stop-color="#009245"/><stop offset="0.74" stop-color="#73bf00"/></linearGradient><linearGradient id="linear-gradient-6" x1="774.06" y1="558.37" x2="941.74" y2="558.37" gradientUnits="userSpaceOnUse"><stop offset="0.17" stop-color="#d400bd"/><stop offset="0.41" stop-color="#f05"/></linearGradient><radialGradient id="radial-gradient-5" cx="773.38" cy="185.55" r="34.16" gradientUnits="userSpaceOnUse"><stop offset="0.12" stop-color="#00a99d"/><stop offset="0.93" stop-color="#ed1c24"/></radialGradient><radialGradient id="radial-gradient-6" cx="721.59" cy="193.76" r="32.28" xlink:href="#radial-gradient-5"/><radialGradient id="radial-gradient-7" cx="751.31" cy="191.5" r="39.98" gradientUnits="userSpaceOnUse"><stop offset="0.12" stop-color="#ff0"/><stop offset="0.93" stop-color="#f15a24"/></radialGradient><linearGradient id="Sky-2" x1="211.52" y1="308.08" x2="354.89" y2="308.08" xlink:href="#Sky"/><radialGradient id="radial-gradient-8" cx="1102.58" cy="897.07" r="26" gradientUnits="userSpaceOnUse"><stop offset="0.17" stop-color="#fff"/><stop offset="0.89" stop-color="#999"/></radialGradient><radialGradient id="radial-gradient-9" cx="1803.38" cy="434.6" xlink:href="#radial-gradient-8"/><radialGradient id="radial-gradient-10" cx="369.45" cy="427.1" r="14" xlink:href="#radial-gradient-8"/></defs><title>JobRocket_CityScape</title><rect class="cls-1" x="-60.28" y="-36.24" width="2031.2" height="1164.12"/><g id="Stars"><polygon class="cls-2" points="243.77 156.79 230.85 161.38 236.74 173.76 224.36 167.88 219.76 180.79 215.17 167.88 202.79 173.76 208.68 161.38 195.76 156.79 208.68 152.19 202.79 139.82 215.17 145.7 219.76 132.78 224.36 145.7 236.74 139.82 230.85 152.19 243.77 156.79"/><polygon class="cls-2" points="556.77 552.79 543.85 557.38 549.74 569.76 537.36 563.88 532.76 576.79 528.17 563.88 515.79 569.76 521.68 557.38 508.76 552.79 521.68 548.2 515.79 535.82 528.17 541.7 532.76 528.78 537.36 541.7 549.74 535.82 543.85 548.2 556.77 552.79"/><polygon class="cls-2" points="1212.77 232.79 1199.85 237.38 1205.74 249.76 1193.36 243.88 1188.76 256.79 1184.17 243.88 1171.79 249.76 1177.68 237.38 1164.76 232.79 1177.68 228.19 1171.79 215.82 1184.17 221.7 1188.76 208.78 1193.36 221.7 1205.74 215.82 1199.85 228.19 1212.77 232.79"/><polygon class="cls-2" points="831.77 40.79 818.85 45.38 824.74 57.76 812.36 51.88 807.76 64.79 803.17 51.88 790.79 57.76 796.68 45.38 783.76 40.79 796.68 36.2 790.79 23.82 803.17 29.7 807.76 16.79 812.36 29.7 824.74 23.82 818.85 36.2 831.77 40.79"/><polygon class="cls-2" points="1731.77 235.79 1718.85 240.38 1724.74 252.76 1712.36 246.88 1707.76 259.79 1703.17 246.88 1690.79 252.76 1696.68 240.38 1683.76 235.79 1696.68 231.19 1690.79 218.82 1703.17 224.7 1707.76 211.78 1712.36 224.7 1724.74 218.82 1718.85 231.19 1731.77 235.79"/><polygon class="cls-2" points="268.77 831.79 255.85 836.38 261.74 848.76 249.36 842.88 244.76 855.79 240.17 842.88 227.79 848.76 233.68 836.38 220.76 831.79 233.68 827.2 227.79 814.82 240.17 820.7 244.76 807.78 249.36 820.7 261.74 814.82 255.85 827.2 268.77 831.79"/><polygon class="cls-2" points="949.77 771.79 936.85 776.38 942.74 788.76 930.36 782.88 925.76 795.79 921.17 782.88 908.79 788.76 914.68 776.38 901.76 771.79 914.68 767.2 908.79 754.82 921.17 760.7 925.76 747.78 930.36 760.7 942.74 754.82 936.85 767.2 949.77 771.79"/><polygon class="cls-2" points="1506.77 873.79 1493.85 878.38 1499.74 890.76 1487.36 884.88 1482.76 897.79 1478.17 884.88 1465.79 890.76 1471.68 878.38 1458.76 873.79 1471.68 869.2 1465.79 856.82 1478.17 862.7 1482.76 849.78 1487.36 862.7 1499.74 856.82 1493.85 869.2 1506.77 873.79"/><polygon class="cls-2" points="1742.77 809.79 1729.85 814.38 1735.74 826.76 1723.36 820.88 1718.76 833.79 1714.17 820.88 1701.79 826.76 1707.68 814.38 1694.76 809.79 1707.68 805.2 1701.79 792.82 1714.17 798.7 1718.76 785.78 1723.36 798.7 1735.74 792.82 1729.85 805.2 1742.77 809.79"/><polygon class="cls-3" points="483 142.44 487.75 152.25 497.56 157 487.75 161.75 483 171.56 478.25 161.75 468.44 157 478.25 152.25 483 142.44"/><polygon class="cls-3" points="142 29.44 146.75 39.26 156.56 44 146.75 48.74 142 58.56 137.25 48.74 127.44 44 137.25 39.26 142 29.44"/><polygon class="cls-3" points="604 333.44 608.75 343.25 618.56 348 608.75 352.75 604 362.56 599.25 352.75 589.44 348 599.25 343.25 604 333.44"/><polygon class="cls-3" points="180 941.44 184.75 951.25 194.56 956 184.75 960.75 180 970.56 175.25 960.75 165.44 956 175.25 951.25 180 941.44"/><polygon class="cls-3" points="1332 91.44 1336.74 101.25 1346.56 106 1336.74 110.75 1332 120.56 1327.26 110.75 1317.44 106 1327.26 101.25 1332 91.44"/><polygon class="cls-3" points="984 317.44 988.75 327.25 998.56 332 988.75 336.75 984 346.56 979.25 336.75 969.44 332 979.25 327.25 984 317.44"/><polygon class="cls-3" points="102 337.44 106.75 347.25 116.56 352 106.75 356.75 102 366.56 97.25 356.75 87.44 352 97.25 347.25 102 337.44"/><polygon class="cls-3" points="362 535.44 366.75 545.25 376.56 550 366.75 554.75 362 564.56 357.25 554.75 347.44 550 357.25 545.25 362 535.44"/><polygon class="cls-3" points="54 695.44 58.74 705.25 68.56 710 58.74 714.75 54 724.56 49.26 714.75 39.44 710 49.26 705.25 54 695.44"/><polygon class="cls-3" points="646 797.44 650.75 807.25 660.56 812 650.75 816.75 646 826.56 641.25 816.75 631.44 812 641.25 807.25 646 797.44"/><polygon class="cls-3" points="1081 549.44 1085.74 559.25 1095.56 564 1085.74 568.75 1081 578.56 1076.26 568.75 1066.44 564 1076.26 559.25 1081 549.44"/><polygon class="cls-3" points="918 931.44 922.75 941.25 932.56 946 922.75 950.75 918 960.56 913.25 950.75 903.44 946 913.25 941.25 918 931.44"/><polygon class="cls-3" points="1576 347.44 1580.74 357.25 1590.56 362 1580.74 366.75 1576 376.56 1571.26 366.75 1561.44 362 1571.26 357.25 1576 347.44"/><polygon class="cls-3" points="1680 115.44 1684.74 125.25 1694.56 130 1684.74 134.75 1680 144.56 1675.26 134.75 1665.44 130 1675.26 125.25 1680 115.44"/><polygon class="cls-3" points="1364 877.44 1368.74 887.25 1378.56 892 1368.74 896.75 1364 906.56 1359.26 896.75 1349.44 892 1359.26 887.25 1364 877.44"/><polygon class="cls-3" points="1348 619.44 1352.74 629.25 1362.56 634 1352.74 638.75 1348 648.56 1343.26 638.75 1333.44 634 1343.26 629.25 1348 619.44"/></g><g id="Planets"><path class="cls-4" d="M1431.44,315c-0.3.49-.61,1-0.89,1.46-11.77,19.72-11,27.76-10.23,28.69s9,1.54,28.69-10.23c1.64-1,3.31-2,5-3.11-0.9-.43-1.79-0.87-2.67-1.33A72.33,72.33,0,0,1,1431.44,315Z"/><path class="cls-4" d="M1550.41,237c2.18-3.23,4.21-6.39,6-9.46,11.77-19.72,11-27.76,10.23-28.69a3.69,3.69,0,0,0-2.09-.4c-3.57,0-11.79,1.79-26.6,10.63-1.88,1.12-3.79,2.32-5.73,3.58A72.16,72.16,0,0,1,1550.41,237Z"/><path class="cls-5" d="M1451.34,330.52c0-13.44-2.8-26.6-2.15-40.54A250.07,250.07,0,0,0,1431.44,315,72.33,72.33,0,0,0,1451.34,330.52Z"/><path class="cls-5" d="M1519,203.42a72,72,0,0,0-97,98.47c11.33-17.35,27.4-36.7,46-55.35C1485.14,229.45,1502.83,214.52,1519,203.42Z"/><path class="cls-5" d="M1515,226c0.76-.89,1.46-1.8,2.12-2.71-7,5.32-14.22,11.29-21.47,17.78A61.17,61.17,0,0,0,1515,226Z"/><path class="cls-6" d="M1449.19,290a69.78,69.78,0,0,1,2.81-17c6.62-22.07,25.16-22.49,43.65-31.93,7.25-6.48,14.46-12.46,21.47-17.78a38.21,38.21,0,0,0,6.92-16.91c-1.63-1.06-3.3-2-5-3-16.2,11.1-33.89,26-51,43.12-18.64,18.64-34.72,38-46,55.35a72.19,72.19,0,0,0,9.44,13.15A250.07,250.07,0,0,1,1449.19,290Z"/><path class="cls-6" d="M1577.29,188.21c-8.27-8.27-23.87-5.72-46.36,7.59-3.85,2.28-7.83,4.84-11.9,7.63,1.71,0.93,3.39,1.91,5,3a72.44,72.44,0,0,1,8.22,6.24c1.94-1.25,3.86-2.46,5.73-3.58,14.81-8.84,23-10.63,26.6-10.63a3.69,3.69,0,0,1,2.09.4c0.81,0.93,1.54,9-10.23,28.69-1.83,3.07-3.86,6.23-6,9.46,0.73,1.61,1.42,3.24,2,4.91a71.6,71.6,0,0,1,3.47,13.22,236.9,236.9,0,0,0,13.79-20.53C1583,212.07,1585.56,196.48,1577.29,188.21Z"/><path class="cls-6" d="M1449,335c-19.72,11.77-27.76,11-28.69,10.23s-1.54-9,10.23-28.69c0.29-.48.6-1,0.89-1.46a72.19,72.19,0,0,1-9.44-13.15q-2.51,3.84-4.7,7.54c-13.3,22.49-15.86,38.09-7.59,46.36q4.75,4.75,12.68,4.74c8.53,0,19.79-4.12,33.68-12.33,5.15-3,10.54-6.59,16.07-10.55a71.49,71.49,0,0,1-18.14-5.82C1452.32,332.93,1450.64,334,1449,335Z"/><path class="cls-6" d="M1452,273a69.78,69.78,0,0,0-2.81,17,394,394,0,0,1,29.46-32.82c5.63-5.63,11.33-11,17-16.08C1477.16,250.51,1458.62,250.93,1452,273Z"/><path class="cls-6" d="M1532.26,212.62a72.44,72.44,0,0,0-8.22-6.24,38.21,38.21,0,0,1-6.92,16.91C1522.31,219.36,1527.38,215.79,1532.26,212.62Z"/><path class="cls-7" d="M1550.41,237a72.16,72.16,0,0,0-18.15-24.34c-4.89,3.16-10,6.73-15.15,10.67-0.66.91-1.36,1.81-2.12,2.71a61.18,61.18,0,0,1-19.35,15.07c-5.67,5.07-11.37,10.45-17,16.08A394,394,0,0,0,1449.19,290c-0.65,13.94,2.19,27.1,2.15,40.54,0.88,0.46,1.77.9,2.67,1.33a71.49,71.49,0,0,0,18.14,5.82,72.29,72.29,0,0,0,12.3,1.13c-0.11-3.37-.17-6.84-0.05-10.37a70.46,70.46,0,0,1,4.21-23.05A57.06,57.06,0,0,1,1492,298c8.77-15.89,16.93-17.37,25.15-20.23,6.79-2.36,13.61-5.66,20.85-18.77,4.63-8.39,9.51-13.67,14.44-17.12C1551.83,240.21,1551.14,238.57,1550.41,237Z"/><path class="cls-8" d="M1555.91,255.09a71.6,71.6,0,0,0-3.47-13.22c-4.94,3.46-9.82,8.74-14.44,17.12-7.23,13.11-14.06,16.41-20.85,18.77-8.22,2.86-16.39,4.34-25.15,20.23a57.06,57.06,0,0,0-3.4,7.37,70.46,70.46,0,0,0-4.21,23.05c-0.11,3.53-.06,7,0.05,10.37h0.43A72,72,0,0,0,1555.91,255.09Z"/><path class="cls-4" d="M1000.59,107.75l-1-.06c-13.57-.65-17.57,2-17.83,2.66s1.7,5.11,13.34,12.12c1,0.58,2,1.16,3,1.74,0-.59,0-1.18-0.05-1.76A42.8,42.8,0,0,1,1000.59,107.75Z"/><path class="cls-4" d="M1074.51,148.08c2.29,0.24,4.51.42,6.62,0.52,13.57,0.65,17.57-2,17.83-2.66a2.18,2.18,0,0,0-.37-1.2c-1-1.86-4.22-5.66-13-10.92-1.11-.67-2.27-1.33-3.47-2A42.7,42.7,0,0,1,1074.51,148.08Z"/><path class="cls-9" d="M998.06,122.45c7-3.72,13.1-8.88,20.56-12.42a148,148,0,0,0-18-2.28A42.8,42.8,0,0,0,998.06,122.45Z"/><path class="cls-10" d="M1078.25,102.12a42.61,42.61,0,0,0-73.43-3c12.21,1.08,26.8,4.07,41.72,8.61a219.78,219.78,0,0,1,36.72,14.59A42.37,42.37,0,0,0,1078.25,102.12Z"/><path class="cls-11" d="M1070.36,126.55c0.68,0.15,1.35.26,2,.35-4.73-2.17-9.86-4.27-15.26-6.25A36.2,36.2,0,0,0,1070.36,126.55Z"/><path class="cls-12" d="M1090.56,126.44c-2.26-1.37-4.71-2.74-7.3-4.09a219.78,219.78,0,0,0-36.72-14.59c-14.93-4.53-29.51-7.53-41.72-8.61-1.8-.16-3.55-0.28-5.25-0.35-15.45-.67-24.3,2.34-26.31,9a10.15,10.15,0,0,0,1.06,7.94q3.57,6.68,15.82,14.14c3,1.84,6.38,3.66,10,5.45a42.3,42.3,0,0,1-2-11.09c-1-.58-2.05-1.16-3-1.74-11.64-7-13.5-11.41-13.34-12.12s4.25-3.3,17.83-2.66l1,0.06a148,148,0,0,1,18,2.28,233.14,233.14,0,0,1,25.34,6.23c4.51,1.37,8.9,2.84,13.13,4.39,5.41,2,10.54,4.08,15.26,6.25,3.5,1.61,6.78,3.26,9.79,4.93,1.2,0.66,2.36,1.33,3.47,2,8.74,5.27,12,9.06,13,10.92a2.18,2.18,0,0,1,.37,1.2c-0.26.68-4.25,3.3-17.83,2.66-2.11-.1-4.33-0.28-6.62-0.52-0.64.83-1.3,1.64-2,2.43a42.37,42.37,0,0,1-5.93,5.49,140.18,140.18,0,0,0,14.56,1.48c15.45,0.67,24.3-2.34,26.31-9S1103.78,134.48,1090.56,126.44Z"/><path class="cls-13" d="M1072.36,126.9c-0.66-.09-1.32-0.2-2-0.35a36.2,36.2,0,0,1-13.26-5.9c-4.23-1.55-8.62-3-13.13-4.39a233.14,233.14,0,0,0-25.34-6.23c-7.46,3.55-13.54,8.7-20.56,12.42,0,0.59,0,1.18.05,1.76a42.3,42.3,0,0,0,2,11.09A42.77,42.77,0,0,0,1003,142c1.73-1,3.52-2,5.4-2.92a41.69,41.69,0,0,1,13.21-4.23,33.77,33.77,0,0,1,4.79-.28c10.74,0.15,13.79,4,17.57,7.49,3.12,2.88,6.75,5.53,15.61,5.65a29,29,0,0,1,13,2.77c0.7-.79,1.36-1.6,2-2.43a42.7,42.7,0,0,0,7.65-16.26C1079.14,130.16,1075.86,128.51,1072.36,126.9Z"/><path class="cls-8" d="M1066.57,156a42.37,42.37,0,0,0,5.93-5.49,29,29,0,0,0-13-2.77c-8.86-.12-12.49-2.76-15.61-5.65-3.78-3.49-6.83-7.34-17.57-7.49a33.77,33.77,0,0,0-4.79.28,41.69,41.69,0,0,0-13.21,4.23c-1.87.92-3.67,1.92-5.4,2.92l0.11,0.23A42.59,42.59,0,0,0,1066.57,156Z"/><path class="cls-4" d="M191,579c0-.34,0-0.68-0.06-1-1-13.55-4-17.21-4.76-17.38s-4.87,2.29-10.45,14.68c-0.46,1-.92,2.11-1.37,3.2,0.58-.1,1.16-0.19,1.74-0.26A42.8,42.8,0,0,1,191,579Z"/><path class="cls-4" d="M159.7,657.18c0,2.31.12,4.53,0.27,6.64,1,13.55,4,17.21,4.76,17.38a2.18,2.18,0,0,0,1.15-.51c1.73-1.21,5.11-4.86,9.3-14.17,0.53-1.18,1.05-2.41,1.57-3.68A42.7,42.7,0,0,1,159.7,657.18Z"/><path class="cls-5" d="M176.07,578.22c4.53,6.54,10.37,12,14.78,18.94A148,148,0,0,0,191,579,42.8,42.8,0,0,0,176.07,578.22Z"/><path class="cls-5" d="M186.29,662.82A42.6,42.6,0,0,0,200,582.17c0.38,12.25-.86,27.09-3.59,42.45A219.77,219.77,0,0,1,186.29,662.82Z"/><path class="cls-5" d="M180.59,650.5c-0.07.69-.1,1.37-0.11,2,1.6-5,3.07-10.29,4.39-15.9A36.2,36.2,0,0,0,180.59,650.5Z"/><path class="cls-14" d="M183.1,670.55c1.1-2.41,2.16-5,3.19-7.73a219.78,219.78,0,0,0,10.13-38.19c2.73-15.36,4-30.2,3.59-42.45-0.06-1.81-.15-3.56-0.27-5.25-1.17-15.42-5.21-23.85-12-25.06a10.15,10.15,0,0,0-7.76,2q-6.21,4.33-12.16,17.39c-1.47,3.22-2.88,6.77-4.23,10.56a42.3,42.3,0,0,1,10.77-3.32c0.45-1.1.91-2.17,1.37-3.2,5.58-12.39,9.73-14.76,10.45-14.68s3.79,3.83,4.76,17.38c0,0.33,0,.68.06,1a148,148,0,0,1-.12,18.17,233.14,233.14,0,0,1-3.17,25.9c-0.82,4.64-1.77,9.18-2.8,13.56-1.32,5.6-2.8,10.95-4.39,15.9-1.18,3.67-2.43,7.12-3.73,10.31-0.52,1.27-1,2.5-1.57,3.68-4.19,9.31-7.57,13-9.3,14.17a2.18,2.18,0,0,1-1.15.51c-0.71-.18-3.79-3.83-4.76-17.38-0.15-2.11-.24-4.33-0.27-6.64-0.9-.53-1.79-1.09-2.65-1.7a42.37,42.37,0,0,1-6.16-5.24,140.18,140.18,0,0,0,.26,14.63c1.17,15.42,5.21,23.85,12,25.06S176.69,684.62,183.1,670.55Z"/><path class="cls-15" d="M176.07,578.22c-0.58.07-1.16,0.16-1.74,0.26a42.3,42.3,0,0,0-10.77,3.32,42.77,42.77,0,0,0-6.35,3.62c1.2,1.6,2.4,3.26,3.54,5A41.69,41.69,0,0,1,166.51,603a33.76,33.76,0,0,1,.85,4.73c1.13,10.68-2.33,14.16-5.35,18.34-2.49,3.44-4.69,7.36-3.75,16.17a29,29,0,0,1-1.21,13.2c0.86,0.6,1.75,1.16,2.65,1.7a42.7,42.7,0,0,0,17,5.66c1.3-3.19,2.55-6.64,3.73-10.31,0-.66,0-1.34.11-2a36.2,36.2,0,0,1,4.28-13.87c1-4.38,2-8.92,2.8-13.56a233.12,233.12,0,0,0,3.17-25.9C186.44,590.18,180.6,584.76,176.07,578.22Z"/><path class="cls-8" d="M150.89,650.24a42.37,42.37,0,0,0,6.16,5.24,29,29,0,0,0,1.21-13.2c-0.93-8.81,1.26-12.73,3.75-16.17,3-4.17,6.48-7.66,5.35-18.34a33.77,33.77,0,0,0-.85-4.73,41.69,41.69,0,0,0-5.76-12.61c-1.14-1.75-2.34-3.41-3.54-5l-0.21.14A42.59,42.59,0,0,0,150.89,650.24Z"/><path class="cls-16" d="M1604.52,592a79.77,79.77,0,0,0-.73-18.29,57,57,0,0,0-15.71,106.92c-0.26-11.68-2.35-23.12-3.75-39.95C1582,612.22,1602.15,621.72,1604.52,592Z"/><path class="cls-16" d="M1641.33,619.34c-20.19,14.25,10.69,11.87,3.56,32.06s-7.12-9.5-22.56,19c-3.33,6.14-5.93,11.61-8,16.43a57,57,0,0,0,42.85-94C1653.59,603.09,1653.81,610.53,1641.33,619.34Z"/><path class="cls-17" d="M1644.89,651.4c7.12-20.19-23.75-17.81-3.56-32.06,12.48-8.81,12.25-16.26,15.87-26.55a56.89,56.89,0,0,0-53.42-19,79.77,79.77,0,0,1,.73,18.29c-2.37,29.69-22.56,20.19-20.19,48.69,1.4,16.82,3.49,28.26,3.75,39.95a56.74,56.74,0,0,0,25.81,6.18h0.46c2-4.82,4.65-10.29,8-16.43C1637.77,641.9,1637.77,671.59,1644.89,651.4Z"/><path class="cls-16" d="M1683.11,943.58a32.2,32.2,0,0,0-.3-7.38,23,23,0,0,0-6.34,43.15c-0.1-4.71-.95-9.33-1.51-16.12C1674,951.73,1682.15,955.56,1683.11,943.58Z"/><path class="cls-16" d="M1698,954.6c-8.15,5.75,4.31,4.79,1.44,12.94s-2.88-3.83-9.11,7.67c-1.34,2.48-2.39,4.69-3.22,6.63a23,23,0,0,0,17.29-38C1702.91,948,1703,951,1698,954.6Z"/><path class="cls-18" d="M1699.41,967.54c2.88-8.15-9.58-7.19-1.44-12.94,5-3.55,4.95-6.56,6.41-10.72a23,23,0,0,0-21.56-7.69,32.2,32.2,0,0,1,.3,7.38c-1,12-9.11,8.15-8.15,19.65,0.57,6.79,1.41,11.41,1.51,16.12a22.9,22.9,0,0,0,10.42,2.5h0.19c0.83-1.94,1.88-4.15,3.22-6.63C1696.53,963.71,1696.53,975.69,1699.41,967.54Z"/><path class="cls-19" d="M1222.17,878.81a127.17,127.17,0,0,0,14.46-25.34,90.86,90.86,0,0,0-111.57,131.26c9.52-16,16.37-33.24,28.68-57.16C1174.61,887,1193.87,916.93,1222.17,878.81Z"/><path class="cls-19" d="M1248.85,946.83c-39.33,2.2,4.41,25.08-22.28,46.35s-1.6-18.86-46.55,6.62c-9.68,5.49-17.83,10.69-24.67,15.47a90.84,90.84,0,0,0,137.38-90.91C1279.15,935.21,1273.16,945.47,1248.85,946.83Z"/><path class="cls-20" d="M1226.57,993.18c26.69-21.27-17.05-44.14,22.28-46.35,24.31-1.36,30.3-11.62,43.89-22.48a90.69,90.69,0,0,0-56.11-70.88,127.17,127.17,0,0,1-14.46,25.34c-28.29,38.12-47.55,8.22-68.42,48.75-12.32,23.92-19.16,41.16-28.68,57.16a90.45,90.45,0,0,0,29.67,30.17l0.63,0.37c6.84-4.78,15-10,24.67-15.47C1225,974.32,1199.89,1014.45,1226.57,993.18Z"/><path class="cls-21" d="M871.17,502.81a127.17,127.17,0,0,0,14.46-25.34A90.86,90.86,0,0,0,774.06,608.73c9.52-16,16.37-33.24,28.68-57.16C823.61,511,842.87,540.93,871.17,502.81Z"/><path class="cls-16" d="M897.85,570.83c-39.33,2.2,4.41,25.08-22.28,46.35S874,598.32,829,623.8c-9.68,5.49-17.83,10.69-24.67,15.47a90.84,90.84,0,0,0,137.38-90.91C928.15,559.21,922.16,569.47,897.85,570.83Z"/><path class="cls-22" d="M875.57,617.18c26.69-21.27-17.05-44.14,22.28-46.35,24.31-1.36,30.3-11.62,43.89-22.48a90.69,90.69,0,0,0-56.11-70.88,127.17,127.17,0,0,1-14.46,25.34c-28.29,38.12-47.55,8.22-68.42,48.75-12.32,23.92-19.16,41.16-28.68,57.16a90.45,90.45,0,0,0,29.67,30.17l0.63,0.37c6.84-4.78,15-10,24.67-15.47C874,598.32,848.89,638.45,875.57,617.18Z"/><path class="cls-23" d="M774.41,214.11a65.84,65.84,0,0,0,8.34,12.59,47,47,0,0,0-34.66-82.19c5.18,8.13,11.55,15.32,19.74,26.59C781.7,190.21,763.38,192.14,774.41,214.11Z"/><path class="cls-24" d="M736.74,210.58c8.15-18.69-12.62-3.81-16.23-21.11s9.09,3.66,7.8-23.06c-0.28-5.76-.78-10.73-1.4-15a47,47,0,0,0,10,84.71C735,227.3,731.7,222.14,736.74,210.58Z"/><path class="cls-25" d="M720.51,189.47c3.61,17.3,24.38,2.41,16.23,21.11-5,11.56-1.69,16.72.16,25.53a47,47,0,0,0,45.85-9.41,65.84,65.84,0,0,1-8.34-12.59c-11-22,7.29-23.9-6.58-43-8.19-11.27-14.56-18.46-19.74-26.59a46.83,46.83,0,0,0-20.86,6.68l-0.32.21c0.62,4.28,1.12,9.25,1.4,15C729.6,193.13,716.9,172.18,720.51,189.47Z"/><path class="cls-26" d="M315.55,272a100.77,100.77,0,0,0,18.52-13.84,72,72,0,0,0-122.55,60.12c12-8.62,22.4-19,38.91-32.47C278.4,263,282.95,290.8,315.55,272Z"/><path class="cls-26" d="M313.45,329.9c-29.27-10.82-4.72,19.62-30.83,26.64s4.79-14.21-35.92-9.9c-8.77.93-16.33,2.13-22.81,3.45a72,72,0,0,0,128.56-22.65C339.14,331,331.54,336.59,313.45,329.9Z"/><path class="cls-27" d="M282.62,356.54c26.11-7,1.56-37.47,30.83-26.64,18.1,6.69,25.69,1.13,39-2.47a71.86,71.86,0,0,0-18.37-69.24A100.77,100.77,0,0,1,315.55,272c-32.61,18.76-37.15-9.05-65.13,13.81-16.51,13.49-26.93,23.85-38.91,32.47a71.67,71.67,0,0,0,12,31.3l0.34,0.47c6.48-1.31,14-2.52,22.81-3.45C287.41,342.33,256.5,363.56,282.62,356.54Z"/><path class="cls-16" d="M514.18,841.23a100.77,100.77,0,0,0,23-1.78,72,72,0,0,0-135.7-14.81c14.73-.87,29.08-4,50.25-6.61C487.64,813.7,476.59,839.63,514.18,841.23Z"/><path class="cls-16" d="M481.43,889c-18.93-24.81-14.49,14-40.3,6s11.66-9.44-25-27.59c-7.91-3.91-14.94-6.94-21.11-9.3a72,72,0,0,0,120.71,49.68C502.52,903.69,493.13,904.32,481.43,889Z"/><path class="cls-18" d="M441.13,895c25.82,8,21.37-30.81,40.3-6,11.7,15.34,21.1,14.71,34.26,18.79a71.86,71.86,0,0,0,21.54-68.32,100.77,100.77,0,0,1-23,1.78c-37.58-1.61-26.54-27.53-62.4-23.2-21.17,2.56-35.51,5.73-50.25,6.61a71.67,71.67,0,0,0-6.59,32.87c0,0.19,0,.39,0,0.58,6.18,2.36,13.21,5.39,21.11,9.3C452.78,885.54,415.31,886.93,441.13,895Z"/><circle class="cls-28" cx="1102.58" cy="897.07" r="26"/><ellipse class="cls-29" cx="1100.25" cy="887.07" rx="5" ry="3.33"/><ellipse class="cls-29" cx="1115.92" cy="903.74" rx="5" ry="3.33" transform="translate(-298.98 1148.84) rotate(-48.83)"/><ellipse class="cls-29" cx="1090.58" cy="911.07" rx="3.33" ry="5" transform="translate(-157.78 1590.06) rotate(-68.42)"/><circle class="cls-30" cx="1803.38" cy="434.6" r="26"/><ellipse class="cls-29" cx="1801.05" cy="424.6" rx="5" ry="3.33"/><ellipse class="cls-29" cx="1816.71" cy="441.26" rx="5" ry="3.33" transform="translate(288.62 1518.34) rotate(-48.83)"/><ellipse class="cls-29" cx="1791.38" cy="448.6" rx="3.33" ry="5" transform="translate(715.29 1949.37) rotate(-68.42)"/><circle class="cls-31" cx="369.45" cy="427.1" r="14"/><ellipse class="cls-29" cx="368.2" cy="421.71" rx="2.69" ry="1.79"/><ellipse class="cls-29" cx="376.63" cy="430.69" rx="2.69" ry="1.79" transform="translate(-195.51 430.69) rotate(-48.83)"/><ellipse class="cls-29" cx="362.99" cy="434.64" rx="1.79" ry="2.69" transform="translate(-174.69 612.3) rotate(-68.42)"/></g><path class="cls-4" d="M1161.43,379.79c0.29,0.53.57,1.05,0.85,1.58C1162,380.84,1161.72,380.31,1161.43,379.79Z"/><path class="cls-4" d="M1117.58,418.27q-2-2-3.93-4.07Q1115.58,416.31,1117.58,418.27Z"/><path class="cls-4" d="M1157.8,373.68c0.23,0.36.45,0.72,0.68,1.08C1158.26,374.4,1158,374,1157.8,373.68Z"/><path class="cls-4" d="M1159.7,376.75c0.27,0.46.54,0.92,0.8,1.38C1160.24,377.66,1160,377.2,1159.7,376.75Z"/><path class="cls-4" d="M1113.46,414c-1.25-1.36-2.46-2.78-3.65-4.23C1111,411.23,1112.21,412.64,1113.46,414Z"/><path class="cls-4" d="M1121.25,421.77v0c-1.14-1-2.29-2.09-3.41-3.19C1119,419.65,1120.11,420.73,1121.25,421.77Z"/><path class="cls-4" d="M1148,441.45h0l-3.09-1.95Z"/><path class="cls-4" d="M1141.64,437.37l2.53,1.64-2.53-1.65h0Z"/><path class="cls-4" d="M1092,360.45a70.67,70.67,0,0,1,3.31-21.67h0a70.67,70.67,0,0,0-3.31,21.67,74.21,74.21,0,0,0,13.7,43.9c1.1,1.56,2.25,3.05,3.43,4.53-1.18-1.47-2.33-3-3.43-4.53A74.21,74.21,0,0,1,1092,360.45Z"/><path class="cls-4" d="M1175.7,421.79c-0.38-1.73-.78-3.55-1.21-5.44h0C1174.91,418.23,1175.32,420.07,1175.7,421.79Z"/><path class="cls-4" d="M1108.48,348q2.11-1.33,4.23-2.57c-2.45,1.4-4.9,2.88-7.32,4.52C1106.42,349.23,1107.45,348.62,1108.48,348Z"/><path class="cls-4" d="M1167.12,392c-1.22-3-2.6-6.15-4.16-9.22,1.56,3.08,2.93,6.22,4.15,9.22h0Z"/><path class="cls-32" d="M1192.49,478.79c1.14-3.53,5.34-19.27-4.4-33.79-5.15-7.69-12.19-13.08-17.6-16.78l-2.21,1.56c3.86,3,9.48,7.53,13.84,14a32.82,32.82,0,0,1,5.1,25.57l-0.25.89-0.92-.1c-0.5-.06-12.46-1.56-21-14.3a63,63,0,0,1-7.9-18.21l-2.23,1.58c1.62,7.17,4.2,15.44,9.1,22.75A38.79,38.79,0,0,0,1192.49,478.79Z"/><path class="cls-33" d="M1170.49,428.22c5.41,3.69,12.45,9.09,17.6,16.78,9.74,14.52,5.53,30.26,4.4,33.79A38.79,38.79,0,0,1,1164,462c-4.91-7.31-7.48-15.59-9.1-22.75l-1.9,1.34c1.68,7.16,4.32,15.31,9.21,22.61a40.29,40.29,0,0,0,31,17.82H1194l0.27-.7c0.3-.77,7.28-19.15-4.36-36.51-5.16-7.69-12.05-13.12-17.51-16.9Z"/><path class="cls-34" d="M1185.35,467.83a31.62,31.62,0,0,0-5-22.83c-4.35-6.49-10.13-11.05-13.89-13.91l-0.84.59c3.54,5.6,9.38,15.69,6.67,17.51-2.53,1.7-8.77-5.94-12.88-11.58a60,60,0,0,0,7.46,17A30.76,30.76,0,0,0,1185.35,467.83Z"/><path class="cls-33" d="M1186.06,470.15l0.92,0.1,0.25-.89a32.82,32.82,0,0,0-5.1-25.57c-4.35-6.48-10-11.05-13.84-14l-1.85,1.3c3.76,2.86,9.54,7.42,13.89,13.91a31.62,31.62,0,0,1,5,22.83,30.76,30.76,0,0,1-18.5-13.19,60,60,0,0,1-7.46-17l-0.74-1-1.49,1.05a63,63,0,0,0,7.9,18.21C1173.61,468.59,1185.56,470.09,1186.06,470.15Z"/><path class="cls-35" d="M1122.16,425.47A57.43,57.43,0,0,0,1119,443c-0.14,11.4,3.8,20.51,11.71,27.13-0.73-15.07,3.59-25.56,7.91-32.17A168.88,168.88,0,0,1,1122.16,425.47Z"/><path class="cls-35" d="M1170.32,394.21a167.26,167.26,0,0,1,5.81,19.64c7.48-1.21,18.36-1,31.37,5C1201,398.7,1180.05,394.88,1170.32,394.21Z"/><path d="M1169.46,392a105.92,105.92,0,0,0-12-22.64,76.88,76.88,0,0,0-39.4-28.62,78.85,78.85,0,0,0-22.85-4.13,2.16,2.16,0,0,0-2,1.42,72.31,72.31,0,0,0-3.44,22.4,75.81,75.81,0,0,0,14.1,45.16,110.16,110.16,0,0,0,16.53,18.33c-2.72,7.62-10.14,34,10.88,49.4l1.91,1.4-0.19-2.36c-1.3-15.77,3.05-26.57,7.4-33.22,2.22,1.46,4.45,2.94,6.53,4.23a2.27,2.27,0,0,0,2.41.06l0,0,3.69-2.75,1.87-1.39,2.22-1.6,1.48-1.07,0.74,1c4.11,5.64,10.35,13.28,12.88,11.57,2.71-1.82-3.13-11.91-6.67-17.51l0.84-.59,1.85-1.3,2.21-1.56,1.88-1.33,4.59-3.24a2.16,2.16,0,0,0,.86-2.22c-0.37-1.68-.77-3.52-1.21-5.48,7.55-1.2,18.71-.88,32.1,5.87l2.11,1.06-0.58-2.29C1204.06,396.09,1178.22,392.51,1169.46,392Zm6.66,21.84a167.26,167.26,0,0,0-5.81-19.64c9.74,0.67,30.69,4.49,37.18,24.64C1194.49,412.83,1183.6,412.64,1176.12,413.85Zm-45.41,56.27c-7.91-6.62-11.85-15.74-11.71-27.13a57.43,57.43,0,0,1,3.16-17.52A168.88,168.88,0,0,0,1138.63,438C1134.3,444.56,1130,455.05,1130.71,470.12Zm27.42-38.07c-5.9-8.75-9-15.44-9.19-17.5,1.83,1,6.87,6.34,12.77,15.09s9,15.44,9.19,17.5C1169.07,446.16,1164,440.81,1158.13,432.06Zm17.57-10.27,0,0.11-4.43,3.13-6.85,4.84-0.94-1.42c-2.06-3.06-12.53-18.22-15.93-15.92s5.88,16.44,8.77,20.74l1.07,1.56-9.38,6.62h0l-3.09-1.95c-0.25-.16-0.41-0.18-0.67-0.34-0.83-.53-2.1-1.72-2.43-1.5h0a4.27,4.27,0,0,1-1-.73,167,167,0,0,1-18.68-14.32c-0.28-.25-0.58-0.57-0.87-0.82h0c-1.14-1-2.28-2.13-3.41-3.23l-0.28-.28q-2-2-3.94-4.07l-0.19-.2c-1.25-1.37-2.46-2.78-3.65-4.23l-0.72-.9c-1.18-1.47-2.33-3-3.43-4.53a74.21,74.21,0,0,1-13.7-43.9,70.67,70.67,0,0,1,3.31-21.67h0a77.27,77.27,0,0,1,22.17,4h0a74.48,74.48,0,0,1,38.31,27.81c0.72,1,1.4,2,2.07,3.07,0.23,0.36.45,0.72,0.68,1.08,0.41,0.66.82,1.32,1.22,2,0.27,0.46.54,0.92,0.8,1.38s0.63,1.11.93,1.67,0.57,1.05.85,1.58,0.46,0.93.68,1.37c1.56,3.08,2.94,6.26,4.16,9.26h0a2.88,2.88,0,0,1,.44,1,165,165,0,0,1,6.69,22.27l0.24,1h0C1174.92,418.24,1175.32,420.06,1175.7,421.79Z"/><path class="cls-36" d="M1092,360.45a117.71,117.71,0,0,1,13.44-10.53c2.43-1.64,4.87-3.11,7.32-4.52,1.57-.92,3.14-1.79,4.72-2.6a77.27,77.27,0,0,0-22.17-4A70.67,70.67,0,0,0,1092,360.45Z"/><path class="cls-33" d="M1142.3,375.76c-7.45-9.15-21.52-19.59-33.82-27.79-1,.65-2.07,1.26-3.09,2A117.71,117.71,0,0,0,1092,360.45a74.21,74.21,0,0,0,13.7,43.9c1.1,1.56,2.25,3.06,3.43,4.53l0.72,0.9c1.19,1.45,2.4,2.87,3.65,4.23l0.19,0.2q1.93,2.1,3.93,4.07l0.27,0.27c1.13,1.1,2.27,2.15,3.41,3.19,0.28,0.26.56,0.53,0.84,0.79a165.53,165.53,0,0,0,18.63,14.25l0.9,0.59,2.53,1.65,0.76,0.49,3.09,1.95h0l9.38-6.62-1.07-1.56c-2.9-4.3-12.09-18.51-8.77-20.74s13.87,12.86,15.93,15.92l0.94,1.42,6.85-4.84C1163.32,408.84,1152.52,388.3,1142.3,375.76Z"/><path class="cls-37" d="M1174.24,415.29a165.26,165.26,0,0,0-6.69-22.29c-0.14-.36-0.29-0.72-0.44-1.09-1.22-3.06-2.59-6.15-4.15-9.22-0.22-.44-0.45-0.89-0.68-1.33s-0.56-1.05-.85-1.58-0.62-1.11-.93-1.67-0.53-.92-0.8-1.38c-0.39-.66-0.8-1.33-1.22-2-0.23-.36-0.45-0.72-0.68-1.08-0.67-1-1.35-2.05-2.07-3.07a74.48,74.48,0,0,0-38.31-27.81h0c-1.57.81-3.15,1.69-4.72,2.6q-2.12,1.24-4.23,2.57c12.3,8.21,26.36,18.64,33.82,27.79,10.22,12.54,21,33.07,29,49.26l4.43-3.13,0-.11c-0.37-1.72-.78-3.55-1.22-5.44Z"/><path class="cls-35" d="M1161.71,429.65c-5.9-8.75-10.94-14.1-12.77-15.09,0.23,2.06,3.29,8.75,9.19,17.5s10.94,14.1,12.77,15.09C1170.67,445.08,1167.61,438.4,1161.71,429.65Z"/><path class="cls-38" d="M1194,481s1.66,1.41,4.47,4"/><path class="cls-39" d="M1207.13,493.25c26,25.67,79.12,86.19,49.87,127.75-38,54-228-2-256,78s-10,136,102,178,426-44,460-136-60-334,78-372S1937,43,1527,87,659,113,727,257s308,246,252,346S735,745,525,637,155,661,109,535,59,195,223,153c159.56-40.86,321,43.22,296.48,182.26"/><path class="cls-38" d="M518.34,341.15q-0.62,2.91-1.34,5.85"/></svg>